<svg xmlns="http://www.w3.org/2000/svg" xmlns:xlink="http://www.w3.org/1999/xlink" width="1040" height="711.3"><rect width="1040" height="711.3" rx="5" ry="5" class="a"/><svg y="0%" x="0%"><circle cx="20" cy="20" r="6" fill="#ff5f58"/><circle cx="40" cy="20" r="6" fill="#ffbd2e"/><circle cx="60" cy="20" r="6" fill="#18c132"/></svg><svg height="651.3" viewBox="0 0 100 65.13" width="1000" x="15" xmlns="http://www.w3.org/2000/svg" xmlns:xlink="http://www.w3.org/1999/xlink" y="50"><style>@keyframes k{0%{transform:translateX(0)}.03%{transform:translateX(-100px)}.13%{transform:translateX(-200px)}9.7%{transform:translateX(-300px)}10.27%{transform:translateX(-400px)}38.94%{transform:translateX(-500px)}39.05%{transform:translateX(-600px)}58.17%{transform:translateX(-700px)}58.27%{transform:translateX(-1300px)}72.62%{transform:translateX(-1400px)}85.56%{transform:translateX(-1500px)}99.89%{transform:translateX(-1600px)}to{transform:translateX(-1700px)}}.a{fill:#282d35}.f{fill:#6f7783}.f,.g,.h{white-space:pre}.g{fill:#66c2cd;font-weight:700}.h{fill:#b9c0cb}</style><g font-family="Monaco,Consolas,Menlo,'Bitstream Vera Sans Mono','Powerline Symbols',monospace" font-size="1.67"><defs><symbol id="1"><text y="1.67" class="f">#</text><text x="2.004" y="1.67" class="f">the</text><text x="6.012" y="1.67" class="f">demo</text><text x="11.022" y="1.67" class="f">app</text><text x="15.03" y="1.67" class="f">and</text><text x="19.038" y="1.67" class="f">monitor</text><text x="27.054" y="1.67" class="f">are</text><text x="31.062" y="1.67" class="f">already</text><text x="39.078" y="1.67" class="f">running</text><text x="47.094" y="1.67" class="f">(scripts/run_demo.sh)</text></symbol><symbol id="2"><text y="1.67" class="f">#</text><text x="2.004" y="1.67" class="f">no</text><text x="5.01" y="1.67" class="f">incidents</text><text x="15.03" y="1.67" class="f">yet</text><text x="19.038" y="1.67" class="f">—</text><text x="21.042" y="1.67" class="f">the</text><text x="25.05" y="1.67" class="f">app</text><text x="29.058" y="1.67" class="f">is</text><text x="32.064" y="1.67" class="f">healthy</text></symbol><symbol id="3"><text y="1.67" class="g">$</text><text x="2.004" y="1.67" class="g">sqlite3</text><text x="10.02" y="1.67" class="g">incidents.db</text><text x="23.046" y="1.67" class="g">&apos;select</text><text x="31.062" y="1.67" class="g">id,</text><text x="35.07" y="1.67" class="g">kind,</text><text x="41.082" y="1.67" class="g">status</text><text x="48.096" y="1.67" class="g">from</text><text x="53.106" y="1.67" class="g">incidents&apos;</text></symbol><symbol id="4"><text y="1.67" class="h">(no</text><text x="4.008" y="1.67" class="h">incidents</text><text x="14.028" y="1.67" class="h">yet)</text></symbol><symbol id="5"><text y="1.67" class="g">$</text><text x="2.004" y="1.67" class="g">scripts/inject_bug.sh</text><text x="24.048" y="1.67" class="g">b1</text></symbol><symbol id="6"><text y="1.67" class="f">#</text><text x="2.004" y="1.67" class="f">commits</text><text x="10.02" y="1.67" class="f">a</text><text x="12.024" y="1.67" class="f">real</text><text x="17.034" y="1.67" class="f">bug</text><text x="21.042" y="1.67" class="f">with</text><text x="26.052" y="1.67" class="f">an</text><text x="29.058" y="1.67" class="f">innocent-looking</text><text x="46.092" y="1.67" class="f">message</text></symbol><symbol id="7"><text y="1.67" class="h">injected</text><text x="9.018" y="1.67" class="h">b1</text><text x="12.024" y="1.67" class="h">as</text><text x="15.03" y="1.67" class="h">local</text><text x="21.042" y="1.67" class="h">commit</text><text x="28.056" y="1.67" class="h">b69a5b1:</text><text x="37.074" y="1.67" class="h">&quot;perf(checkout):</text><text x="54.108" y="1.67" class="h">precompute</text><text x="65.13" y="1.67" class="h">price</text><text x="71.142" y="1.67" class="h">lookup</text><text x="78.156" y="1.67" class="h">table&quot;</text></symbol><symbol id="8"><text y="1.67" class="h">undo</text><text x="5.01" y="1.67" class="h">with:</text><text x="11.022" y="1.67" class="h">git</text><text x="15.03" y="1.67" class="h">reset</text><text x="21.042" y="1.67" class="h">--hard</text><text x="28.056" y="1.67" class="h">HEAD~1</text></symbol><symbol id="9"><text y="1.67" class="f">#</text><text x="2.004" y="1.67" class="f">the</text><text x="6.012" y="1.67" class="f">monitor&apos;s</text><text x="16.032" y="1.67" class="f">error-rate</text><text x="27.054" y="1.67" class="f">detector</text><text x="36.072" y="1.67" class="f">fired,</text><text x="43.086" y="1.67" class="f">and</text><text x="47.094" y="1.67" class="f">the</text><text x="51.102" y="1.67" class="f">agent</text><text x="57.114" y="1.67" class="f">picked</text><text x="64.128" y="1.67" class="f">it</text><text x="67.134" y="1.67" class="f">up</text></symbol><symbol id="10"><text y="1.67" class="h">#1</text><text x="4.008" y="1.67" class="h">error_rate</text><text x="19.038" y="1.67" class="h">fix_proposed</text><text x="34.068" y="1.67" class="h">5</text><text x="36.072" y="1.67" class="h">errors</text><text x="43.086" y="1.67" class="h">across</text><text x="50.1" y="1.67" class="h">1</text><text x="52.104" y="1.67" class="h">route(s)</text></symbol><symbol id="11"><text x="6.012" y="1.67" class="h">tools:</text><text x="13.026" y="1.67" class="h">read_logs</text><text x="23.046" y="1.67" class="h">-&gt;</text><text x="26.052" y="1.67" class="h">git_log_recent</text><text x="41.082" y="1.67" class="h">-&gt;</text><text x="44.088" y="1.67" class="h">git_blame</text><text x="54.108" y="1.67" class="h">-&gt;</text><text x="57.114" y="1.67" class="h">read_source</text></symbol><symbol id="12"><text x="6.012" y="1.67" class="h">cause:</text><text x="13.026" y="1.67" class="h">PRICE_CENTS_BY_ID</text><text x="31.062" y="1.67" class="h">is</text><text x="34.068" y="1.67" class="h">built</text><text x="40.08" y="1.67" class="h">with</text><text x="45.09" y="1.67" class="h">str(p[&quot;id&quot;])</text><text x="58.116" y="1.67" class="h">as</text><text x="61.122" y="1.67" class="h">its</text><text x="65.13" y="1.67" class="h">keys,</text><text x="71.142" y="1.67" class="h">while</text><text x="77.154" y="1.67" class="h">validation</text><text x="88.176" y="1.67" class="h">checks</text><text x="95.19" y="1.67" class="h">the</text><text x="99.198" y="1.67" class="h">i</text></symbol><symbol id="13"><text y="1.67" class="h">ncoming</text><text x="8.016" y="1.67" class="h">p...</text></symbol><symbol id="14"><text y="1.67" class="g">$</text><text x="2.004" y="1.67" class="g">sqlite3</text><text x="10.02" y="1.67" class="g">incidents.db</text><text x="24.048" y="1.67" class="g">#</text><text x="26.052" y="1.67" class="g">again,</text><text x="33.066" y="1.67" class="g">a</text><text x="35.07" y="1.67" class="g">few</text><text x="39.078" y="1.67" class="g">seconds</text><text x="47.094" y="1.67" class="g">later</text></symbol><symbol id="15"><text y="1.67" class="f">#</text><text x="2.004" y="1.67" class="f">the</text><text x="6.012" y="1.67" class="f">agent</text><text x="12.024" y="1.67" class="f">proposed</text><text x="21.042" y="1.67" class="f">a</text><text x="23.046" y="1.67" class="f">diff.</text><text x="29.058" y="1.67" class="f">now</text><text x="33.066" y="1.67" class="f">validate</text><text x="42.084" y="1.67" class="f">it</text><text x="45.09" y="1.67" class="f">for</text><text x="49.098" y="1.67" class="f">real:</text></symbol><symbol id="16"><text y="1.67" class="g">$</text><text x="2.004" y="1.67" class="g">python</text><text x="9.018" y="1.67" class="g">-m</text><text x="12.024" y="1.67" class="g">diagnose</text><text x="21.042" y="1.67" class="g">--offline</text><text x="31.062" y="1.67" class="g">--resume</text><text x="40.08" y="1.67" class="g">--base-branch</text><text x="54.108" y="1.67" class="g">demo/b1</text></symbol><symbol id="17"><text y="1.67" class="h">a</text><text x="2.004" y="1.67" class="h">proposed</text><text x="11.022" y="1.67" class="h">fix</text><text x="15.03" y="1.67" class="h">is</text><text x="18.036" y="1.67" class="h">already</text><text x="26.052" y="1.67" class="h">recorded</text><text x="35.07" y="1.67" class="h">—</text><text x="37.074" y="1.67" class="h">running</text><text x="45.09" y="1.67" class="h">the</text><text x="49.098" y="1.67" class="h">gate</text><text x="54.108" y="1.67" class="h">over</text><text x="59.118" y="1.67" class="h">it,</text><text x="63.126" y="1.67" class="h">not</text><text x="67.134" y="1.67" class="h">the</text><text x="71.142" y="1.67" class="h">model</text></symbol><symbol id="18"><text y="1.67" class="h">validating</text><text x="11.022" y="1.67" class="h">the</text><text x="15.03" y="1.67" class="h">proposed</text><text x="24.048" y="1.67" class="h">diff</text><text x="29.058" y="1.67" class="h">against</text><text x="37.074" y="1.67" class="h">demo/b1</text><text x="45.09" y="1.67" class="h">in</text><text x="48.096" y="1.67" class="h">a</text><text x="50.1" y="1.67" class="h">throwaway</text><text x="60.12" y="1.67" class="h">worktree</text></symbol><symbol id="19"><text y="1.67" class="h">validation:</text><text x="12.024" y="1.67" class="h">applied</text><text x="20.04" y="1.67" class="h">cleanly;</text><text x="29.058" y="1.67" class="h">tests</text><text x="35.07" y="1.67" class="h">failed</text><text x="42.084" y="1.67" class="h">before</text><text x="49.098" y="1.67" class="h">and</text><text x="53.106" y="1.67" class="h">pass</text><text x="58.116" y="1.67" class="h">after</text></symbol><symbol id="20"><text y="1.67" class="h">status:</text><text x="8.016" y="1.67" class="h">fix_validated</text></symbol><symbol id="21"><text y="1.67" class="h">(pass</text><text x="6.012" y="1.67" class="h">--open-pr</text><text x="16.032" y="1.67" class="h">to</text><text x="19.038" y="1.67" class="h">open</text><text x="24.048" y="1.67" class="h">a</text><text x="26.052" y="1.67" class="h">pull</text><text x="31.062" y="1.67" class="h">request,</text><text x="40.08" y="1.67" class="h">or</text><text x="43.086" y="1.67" class="h">--dry-run-pr</text><text x="56.112" y="1.67" class="h">to</text><text x="59.118" y="1.67" class="h">preview</text><text x="67.134" y="1.67" class="h">one)</text></symbol><symbol id="22"><text y="1.67" class="g">$</text><text x="2.004" y="1.67" class="g">sqlite3</text><text x="10.02" y="1.67" class="g">incidents.db</text><text x="23.046" y="1.67" class="g">&apos;select</text><text x="31.062" y="1.67" class="g">id,</text><text x="35.07" y="1.67" class="g">status</text><text x="42.084" y="1.67" class="g">from</text><text x="47.094" y="1.67" class="g">incidents&apos;</text></symbol><symbol id="23"><text y="1.67" class="f">#</text><text x="2.004" y="1.67" class="f">red</text><text x="6.012" y="1.67" class="f">before</text><text x="13.026" y="1.67" class="f">the</text><text x="17.034" y="1.67" class="f">diff,</text><text x="23.046" y="1.67" class="f">green</text><text x="29.058" y="1.67" class="f">after</text><text x="35.07" y="1.67" class="f">it</text><text x="38.076" y="1.67" class="f">—</text><text x="40.08" y="1.67" class="f">that</text><text x="45.09" y="1.67" class="f">is</text><text x="48.096" y="1.67" class="f">what</text><text x="53.106" y="1.67" class="f">fix_validated</text><text x="67.134" y="1.67" class="f">means</text></symbol><symbol id="a"><path fill="transparent" d="M0 0h100v31H0z"/></symbol><symbol id="b"><path fill="#6f7683" d="M0 0h1.102v2.171H0z"/></symbol></defs><path class="a" d="M0 0h100v65.13H0z"/><g style="animation-duration:20.945039s;animation-iteration-count:infinite;animation-name:k;animation-timing-function:steps(1,end)"><svg width="1800"><svg><use xlink:href="#a"/><use xlink:href="#b" x="-.004"/></svg><svg x="100"><use xlink:href="#a"/><use xlink:href="#b" x="-.004" y="8.659"/><use xlink:href="#1"/><use xlink:href="#2" y="2.171"/><use xlink:href="#3" y="6.513"/></svg><svg x="200"><use xlink:href="#a"/><use xlink:href="#b" x="-.004" y="10.83"/><use xlink:href="#1"/><use xlink:href="#2" y="2.171"/><use xlink:href="#3" y="6.513"/><use xlink:href="#4" y="8.684"/></svg><svg x="300"><use xlink:href="#a"/><use xlink:href="#b" x="-.004" y="17.343"/><use xlink:href="#1"/><use xlink:href="#2" y="2.171"/><use xlink:href="#3" y="6.513"/><use xlink:href="#4" y="8.684"/><use xlink:href="#5" y="13.026"/><use xlink:href="#6" y="15.197"/></svg><svg x="400"><use xlink:href="#a"/><use xlink:href="#b" x="-.004" y="21.685"/><use xlink:href="#1"/><use xlink:href="#2" y="2.171"/><use xlink:href="#3" y="6.513"/><use xlink:href="#4" y="8.684"/><use xlink:href="#5" y="13.026"/><use xlink:href="#6" y="15.197"/><use xlink:href="#7" y="17.368"/><use xlink:href="#8" y="19.539"/></svg><svg x="500"><use xlink:href="#a"/><use xlink:href="#b" x="-.004" y="28.198"/><use xlink:href="#1"/><use xlink:href="#2" y="2.171"/><use xlink:href="#3" y="6.513"/><use xlink:href="#4" y="8.684"/><use xlink:href="#5" y="13.026"/><use xlink:href="#6" y="15.197"/><use xlink:href="#7" y="17.368"/><use xlink:href="#8" y="19.539"/><use xlink:href="#3" y="23.881"/><use xlink:href="#9" y="26.052"/></svg><svg x="600"><use xlink:href="#a"/><use xlink:href="#b" x="-.004" y="36.882"/><use xlink:href="#1"/><use xlink:href="#2" y="2.171"/><use xlink:href="#3" y="6.513"/><use xlink:href="#4" y="8.684"/><use xlink:href="#5" y="13.026"/><use xlink:href="#6" y="15.197"/><use xlink:href="#7" y="17.368"/><use xlink:href="#8" y="19.539"/><use xlink:href="#3" y="23.881"/><use xlink:href="#9" y="26.052"/><use xlink:href="#10" y="28.223"/><use xlink:href="#11" y="30.394"/><use xlink:href="#12" y="32.565"/><use xlink:href="#13" y="34.736"/></svg><svg x="700"><use xlink:href="#a"/><use xlink:href="#b" x="-.004" y="41.224"/><use xlink:href="#1"/><use xlink:href="#2" y="2.171"/><use xlink:href="#3" y="6.513"/><use xlink:href="#4" y="8.684"/><use xlink:href="#5" y="13.026"/><use xlink:href="#6" y="15.197"/><use xlink:href="#7" y="17.368"/><use xlink:href="#8" y="19.539"/><use xlink:href="#3" y="23.881"/><use xlink:href="#9" y="26.052"/><use xlink:href="#10" y="28.223"/><use xlink:href="#11" y="30.394"/><use xlink:href="#12" y="32.565"/><use xlink:href="#13" y="34.736"/><use xlink:href="#14" y="39.078"/></svg><svg x="800"><use xlink:href="#a"/><use xlink:href="#b" x="59.996" y="41.224"/><use xlink:href="#1"/><use xlink:href="#2" y="2.171"/><use xlink:href="#3" y="6.513"/><use xlink:href="#4" y="8.684"/><use xlink:href="#5" y="13.026"/><use xlink:href="#6" y="15.197"/><use xlink:href="#7" y="17.368"/><use xlink:href="#8" y="19.539"/><use xlink:href="#3" y="23.881"/><use xlink:href="#9" y="26.052"/><use xlink:href="#10" y="28.223"/><use xlink:href="#11" y="30.394"/><use xlink:href="#12" y="32.565"/><use xlink:href="#13" y="34.736"/><use xlink:href="#14" y="39.078"/><use xlink:href="#10" y="41.249"/></svg><svg x="900"><use xlink:href="#a"/><use xlink:href="#b" x="-.004" y="43.395"/><use xlink:href="#1"/><use xlink:href="#2" y="2.171"/><use xlink:href="#3" y="6.513"/><use xlink:href="#4" y="8.684"/><use xlink:href="#5" y="13.026"/><use xlink:href="#6" y="15.197"/><use xlink:href="#7" y="17.368"/><use xlink:href="#8" y="19.539"/><use xlink:href="#3" y="23.881"/><use xlink:href="#9" y="26.052"/><use xlink:href="#10" y="28.223"/><use xlink:href="#11" y="30.394"/><use xlink:href="#12" y="32.565"/><use xlink:href="#13" y="34.736"/><use xlink:href="#14" y="39.078"/><use xlink:href="#10" y="41.249"/></svg><svg x="1000"><use xlink:href="#a"/><use xlink:href="#b" x="67.996" y="43.395"/><use xlink:href="#1"/><use xlink:href="#2" y="2.171"/><use xlink:href="#3" y="6.513"/><use xlink:href="#4" y="8.684"/><use xlink:href="#5" y="13.026"/><use xlink:href="#6" y="15.197"/><use xlink:href="#7" y="17.368"/><use xlink:href="#8" y="19.539"/><use xlink:href="#3" y="23.881"/><use xlink:href="#9" y="26.052"/><use xlink:href="#10" y="28.223"/><use xlink:href="#11" y="30.394"/><use xlink:href="#12" y="32.565"/><use xlink:href="#13" y="34.736"/><use xlink:href="#14" y="39.078"/><use xlink:href="#10" y="41.249"/><use xlink:href="#11" y="43.42"/></svg><svg x="1100"><use xlink:href="#a"/><use xlink:href="#b" x="-.004" y="45.566"/><use xlink:href="#1"/><use xlink:href="#2" y="2.171"/><use xlink:href="#3" y="6.513"/><use xlink:href="#4" y="8.684"/><use xlink:href="#5" y="13.026"/><use xlink:href="#6" y="15.197"/><use xlink:href="#7" y="17.368"/><use xlink:href="#8" y="19.539"/><use xlink:href="#3" y="23.881"/><use xlink:href="#9" y="26.052"/><use xlink:href="#10" y="28.223"/><use xlink:href="#11" y="30.394"/><use xlink:href="#12" y="32.565"/><use xlink:href="#13" y="34.736"/><use xlink:href="#14" y="39.078"/><use xlink:href="#10" y="41.249"/><use xlink:href="#11" y="43.42"/></svg><svg x="1200"><use xlink:href="#a"/><use xlink:href="#b" x="11.996" y="47.737"/><use xlink:href="#1"/><use xlink:href="#2" y="2.171"/><use xlink:href="#3" y="6.513"/><use xlink:href="#4" y="8.684"/><use xlink:href="#5" y="13.026"/><use xlink:href="#6" y="15.197"/><use xlink:href="#7" y="17.368"/><use xlink:href="#8" y="19.539"/><use xlink:href="#3" y="23.881"/><use xlink:href="#9" y="26.052"/><use xlink:href="#10" y="28.223"/><use xlink:href="#11" y="30.394"/><use xlink:href="#12" y="32.565"/><use xlink:href="#13" y="34.736"/><use xlink:href="#14" y="39.078"/><use xlink:href="#10" y="41.249"/><use xlink:href="#11" y="43.42"/><use xlink:href="#12" y="45.591"/><use xlink:href="#13" y="47.762"/></svg><svg x="1300"><use xlink:href="#a"/><use xlink:href="#b" x="-.004" y="49.908"/><use xlink:href="#1"/><use xlink:href="#2" y="2.171"/><use xlink:href="#3" y="6.513"/><use xlink:href="#4" y="8.684"/><use xlink:href="#5" y="13.026"/><use xlink:href="#6" y="15.197"/><use xlink:href="#7" y="17.368"/><use xlink:href="#8" y="19.539"/><use xlink:href="#3" y="23.881"/><use xlink:href="#9" y="26.052"/><use xlink:href="#10" y="28.223"/><use xlink:href="#11" y="30.394"/><use xlink:href="#12" y="32.565"/><use xlink:href="#13" y="34.736"/><use xlink:href="#14" y="39.078"/><use xlink:href="#10" y="41.249"/><use xlink:href="#11" y="43.42"/><use xlink:href="#12" y="45.591"/><use xlink:href="#13" y="47.762"/></svg><svg x="1400"><use xlink:href="#a"/><use xlink:href="#b" x="-.004" y="56.421"/><use xlink:href="#1"/><use xlink:href="#2" y="2.171"/><use xlink:href="#3" y="6.513"/><use xlink:href="#4" y="8.684"/><use xlink:href="#5" y="13.026"/><use xlink:href="#6" y="15.197"/><use xlink:href="#7" y="17.368"/><use xlink:href="#8" y="19.539"/><use xlink:href="#3" y="23.881"/><use xlink:href="#9" y="26.052"/><use xlink:href="#10" y="28.223"/><use xlink:href="#11" y="30.394"/><use xlink:href="#12" y="32.565"/><use xlink:href="#13" y="34.736"/><use xlink:href="#14" y="39.078"/><use xlink:href="#10" y="41.249"/><use xlink:href="#11" y="43.42"/><use xlink:href="#12" y="45.591"/><use xlink:href="#13" y="47.762"/><use xlink:href="#15" y="49.933"/><use xlink:href="#16" y="54.275"/></svg><svg x="1500"><use xlink:href="#a"/><use xlink:href="#b" x="-.004" y="65.105"/><use xlink:href="#3" y="2.171"/><use xlink:href="#4" y="4.342"/><use xlink:href="#5" y="8.684"/><use xlink:href="#6" y="10.855"/><use xlink:href="#7" y="13.026"/><use xlink:href="#8" y="15.197"/><use xlink:href="#3" y="19.539"/><use xlink:href="#9" y="21.71"/><use xlink:href="#10" y="23.881"/><use xlink:href="#11" y="26.052"/><use xlink:href="#12" y="28.223"/><use xlink:href="#13" y="30.394"/><use xlink:href="#14" y="34.736"/><use xlink:href="#10" y="36.907"/><use xlink:href="#11" y="39.078"/><use xlink:href="#12" y="41.249"/><use xlink:href="#13" y="43.42"/><use xlink:href="#15" y="45.591"/><use xlink:href="#16" y="49.933"/><use xlink:href="#17" y="52.104"/><use xlink:href="#18" y="56.446"/><use xlink:href="#19" y="58.617"/><use xlink:href="#20" y="60.788"/><use xlink:href="#21" y="62.959"/></svg><svg x="1600"><use xlink:href="#a"/><use xlink:href="#b" x="-.004" y="65.105"/><use xlink:href="#5" y="2.171"/><use xlink:href="#6" y="4.342"/><use xlink:href="#7" y="6.513"/><use xlink:href="#8" y="8.684"/><use xlink:href="#3" y="13.026"/><use xlink:href="#9" y="15.197"/><use xlink:href="#10" y="17.368"/><use xlink:href="#11" y="19.539"/><use xlink:href="#12" y="21.71"/><use xlink:href="#13" y="23.881"/><use xlink:href="#14" y="28.223"/><use xlink:href="#10" y="30.394"/><use xlink:href="#11" y="32.565"/><use xlink:href="#12" y="34.736"/><use xlink:href="#13" y="36.907"/><use xlink:href="#15" y="39.078"/><use xlink:href="#16" y="43.42"/><use xlink:href="#17" y="45.591"/><use xlink:href="#18" y="49.933"/><use xlink:href="#19" y="52.104"/><use xlink:href="#20" y="54.275"/><use xlink:href="#21" y="56.446"/><use xlink:href="#22" y="60.788"/><use xlink:href="#23" y="62.959"/></svg><svg x="1700"><use xlink:href="#a"/><use xlink:href="#b" x="-.004" y="65.105"/><use xlink:href="#8"/><use xlink:href="#3" y="4.342"/><use xlink:href="#9" y="6.513"/><use xlink:href="#10" y="8.684"/><use xlink:href="#11" y="10.855"/><use xlink:href="#12" y="13.026"/><use xlink:href="#13" y="15.197"/><use xlink:href="#14" y="19.539"/><use xlink:href="#10" y="21.71"/><use xlink:href="#11" y="23.881"/><use xlink:href="#12" y="26.052"/><use xlink:href="#13" y="28.223"/><use xlink:href="#15" y="30.394"/><use xlink:href="#16" y="34.736"/><use xlink:href="#17" y="36.907"/><use xlink:href="#18" y="41.249"/><use xlink:href="#19" y="43.42"/><use xlink:href="#20" y="45.591"/><use xlink:href="#21" y="47.762"/><use xlink:href="#22" y="52.104"/><use xlink:href="#23" y="54.275"/><text y="58.116" class="h">#1</text><text x="4.008" y="58.116" class="h">error_rate</text><text x="19.038" y="58.116" class="h">fix_validated</text><text x="34.068" y="58.116" class="h">5</text><text x="36.072" y="58.116" class="h">errors</text><text x="43.086" y="58.116" class="h">across</text><text x="50.1" y="58.116" class="h">1</text><text x="52.104" y="58.116" class="h">route(s)</text><use xlink:href="#11" y="58.617"/><use xlink:href="#12" y="60.788"/><use xlink:href="#13" y="62.959"/></svg></svg></g></g></svg></svg>